<svg xmlns="http://www.w3.org/2000/svg" version="1.1" x="0" y="0" width="512" height="512" viewBox="0 0 512 512" xml:space="preserve"><path d="M416 48c-44.2 0-80 35.8-80 80 0 11.9 2.6 23.3 7.3 33.4L416 304l72.7-142.6C493.4 151.3 496 139.9 496 128 496 83.8 460.2 48 416 48zM416 176c-26.5 0-48-21.5-48-48s21.5-48 48-48 48 21.5 48 48S442.5 176 416 176zM439.9 327.5l29.1 58.2 -73.8 36.9 -24.7-123.8 4.2-4.2 0.4-0.4 -15.2-30L352 272l-96-64 -96 64 -64-64L0 400l128 64 128-64 128 64 128-64 -54-108L439.9 327.5zM116.8 422.6l-73.8-36.9L104.8 262l32.6 32.6 4.2 4.2L116.8 422.6zM240 372.2l-89.5 44.8 23.1-115.6 4.1-2.7 62.3-41.5V372.2zM272 372.2V257.1l62.3 41.5 4.1 2.8 23.1 115.6L272 372.2z" fill="gray"/></svg>