<svg xmlns="http://www.w3.org/2000/svg" version="1.1" x="0" y="0" width="512" height="512" viewBox="0 0 512 512" enable-background="new 0 0 512 512" xml:space="preserve"><path fill="#cccccc" d="M302.3 325.3 404.8 111h-20.2c-1.8 0-2.9 0.9-3.2 2.2 -0.3 1.3-30.3 93-32.5 100.6 -1.5 5.4-6.6 24.5-7.8 29.1l-10.5-28.5c-2.5-7.9-26.9-75.9-27.6-78.6 -0.4-1.5-1.1-3.4-3.7-3.4h-19.7c-1.9 0-3 2.1-2.4 3.4 0.5 1.1 36.2 95.9 50.6 132.1v79.7c0 1.5 0.6 2.3 2 2.3H348.5c1.2 0 2-0.9 2-2.3v-75.5 -3.5c12-33.5 55.9-152.8 56.3-154.2C407.5 112.7 407.3 111 404.8 111z"/><path fill="#cccccc" d="M303.6 391.5c-0.6-1.1-1.2-2.2-1.9-3.3 -1.1 0.1-2.2 0-3.3-0.5 -6.8-3.2-10.8-9.5-14.6-15.7 -1-1.7-1-3.4-0.5-4.7 -9.8-13.7-19.8-27.4-29.2-41.5h-83.4v-27.9h66.1c-4.9-8.8-9.4-17.8-13.4-27.1 -0.1-0.3-0.2-0.5-0.3-0.8h-52.5v-27.9h42.9c-3.1-6.8-6.3-13.7-8.4-20.9 -0.7-2.4-1.3-4.8-1.7-7.2h-32.7V186.1h34.9c0-0.1 0.1-0.3 0.1-0.4 4.1-12 10-23.1 15.1-34.7 4.8-10.9 10-22.3 17.3-31.8 0-5.3 1.5-10.1 4.2-14 -1.5-1.9-1.7-4.5-0.6-6.5H43.3c-8.7 0-15.7 7-15.7 15.7v283.1c0 8.7 7 15.7 15.7 15.7h281C314.8 411 308.1 399.2 303.6 391.5zM142.9 325.9h-27.9V186.1h27.9V325.9z"/><path fill="#cccccc" d="M342.1 53.5c-80.9 0-146.7 65.8-146.7 146.7 0 100.4 131.2 247.7 136.8 253.9 5.2 5.8 14.4 5.8 19.7 0 5.6-6.2 136.8-153.5 136.8-253.9C488.7 119.3 423 53.5 342.1 53.5zM342.1 425c-44.2-52.5-120.2-156-120.2-224.8 0-66.3 53.9-120.2 120.2-120.2s120.2 53.9 120.2 120.2C462.3 269.1 386.3 372.6 342.1 425z"/></svg>
