<?xml version="1.0" encoding="utf-8"?>
<!-- Generator: Adobe Illustrator 16.0.0, SVG Export Plug-In . SVG Version: 6.00 Build 0)  -->
<!DOCTYPE svg PUBLIC "-//W3C//DTD SVG 1.1//EN" "http://www.w3.org/Graphics/SVG/1.1/DTD/svg11.dtd">
<svg version="1.1" id="Слой_1" xmlns="http://www.w3.org/2000/svg" xmlns:xlink="http://www.w3.org/1999/xlink" x="0px" y="0px"
	 width="512px" height="512px" viewBox="0 0 512 512" enable-background="new 0 0 512 512" xml:space="preserve">
<circle fill="#FFFFFF" cx="256" cy="255.75" r="244.25"/>
<linearGradient id="SVGID_1_" gradientUnits="userSpaceOnUse" x1="364.4905" y1="913.9414" x2="678.4999" y2="539.7195" gradientTransform="matrix(1 0 0 1 -265.4946 -471.0801)">
	<stop  offset="0" style="stop-color:#001D32"/>
	<stop  offset="1" style="stop-color:#40BFE8"/>
</linearGradient>
<path fill="url(#SVGID_1_)" d="M256,11.5c-134.896,0-244.25,109.354-244.25,244.25C11.75,390.646,121.104,500,256,500
	c134.896,0,244.25-109.354,244.25-244.25C500.25,120.854,390.896,11.5,256,11.5z M256,470.002
	c-118.328,0-214.252-95.924-214.252-214.252S137.672,41.498,256,41.498c118.327,0,214.252,95.924,214.252,214.252
	S374.327,470.002,256,470.002z"/>
<rect x="164.005" y="208.856" fill="#175672" width="20.515" height="92.318"/>
<linearGradient id="SVGID_2_" gradientUnits="userSpaceOnUse" x1="276.2991" y1="277.9717" x2="389.6114" y2="164.6594">
	<stop  offset="0" style="stop-color:#257A9B"/>
	<stop  offset="1" style="stop-color:#40BFE8"/>
</linearGradient>
<path fill="url(#SVGID_2_)" d="M375.096,151.044H360.6c-1.283,0-2.086,0.629-2.271,1.542c-0.185,0.918-21.737,66.636-23.304,72.111
	c-1.11,3.88-4.733,17.562-5.603,20.848l-7.495-20.466c-1.821-5.633-19.279-54.404-19.789-56.352
	c-0.284-1.071-0.776-2.403-2.652-2.403h-14.152c-1.384,0-2.166,1.518-1.72,2.46c0.356,0.752,25.918,68.756,36.244,94.736v57.119
	c0,1.041,0.418,1.665,1.456,1.665h13.403c0.83,0,1.455-0.624,1.455-1.665v-54.147v-2.521
	c8.607-24.043,40.052-109.567,40.395-110.524C376.983,152.276,376.861,151.044,375.096,151.044z"/>
<linearGradient id="SVGID_3_" gradientUnits="userSpaceOnUse" x1="108.1135" y1="380.7568" x2="376.3108" y2="112.5596">
	<stop  offset="0" style="stop-color:#001D32"/>
	<stop  offset="1" style="stop-color:#40BFE8"/>
</linearGradient>
<path fill="url(#SVGID_3_)" d="M330.126,109.854c-29.039,0-55.364,11.835-74.41,30.935H111.178c-11.231,0-20.369,9.138-20.369,20.37
	v193.87c0,11.231,9.138,20.37,20.369,20.37h193.766c9.972,12.45,17.1,20.448,18.141,21.607c3.762,4.19,10.331,4.183,14.087,0
	c4.006-4.46,98.089-110.076,98.089-182.02C435.26,157.017,388.098,109.854,330.126,109.854z M111.178,356.2
	c-0.645,0-1.17-0.524-1.17-1.172v-193.87c0-0.646,0.525-1.171,1.17-1.171h129.386c-8.86,14.375-14.356,31.033-15.387,48.869h-25.269
	v20.484h26.225c0.759,5.042,1.888,10.194,3.32,15.417h-29.545v20.483h36.515c2.06,5.134,4.337,10.285,6.792,15.42h-43.307v20.483
	h54.01c11.363,20.155,24.466,39.268,36.205,55.056H111.178z M330.126,376.181c-31.663-37.612-86.2-111.818-86.2-161.193
	c0-47.531,38.669-86.201,86.2-86.201c47.532,0,86.202,38.67,86.202,86.201C416.328,264.365,361.8,338.556,330.126,376.181z"/>
</svg>
